<svg xmlns="http://www.w3.org/2000/svg" width="1080" height="1350" viewBox="0 0 1080 1350" role="img" aria-labelledby="title desc">
<title id="title">Campaign D: We Complete The Ritual</title><desc id="desc">Original black, chrome, and fire-colored campaign master for the social / community audience lens.</desc>
<defs><radialGradient id="bg"><stop stop-color="#242429"/><stop offset="1" stop-color="#050506"/></radialGradient><filter id="glow"><feGaussianBlur stdDeviation="9" result="b"/><feMerge><feMergeNode in="b"/><feMergeNode in="SourceGraphic"/></feMerge></filter></defs>
<rect width="1080" height="1350" fill="url(#bg)"/><path d="M0 0H1080V18H0Z" fill="#ff304f"/><g transform="rotate(-6 540 600)"><rect x="120" y="280" width="360" height="430" fill="#ddd"/><rect x="145" y="305" width="310" height="340" fill="#17171b"/><rect x="570" y="380" width="360" height="430" fill="#ddd"/><rect x="595" y="405" width="310" height="340" fill="#202025"/></g><path d="M40 780C290 260 640 940 1040 340" fill="none" stroke="#ff304f" stroke-width="12"/>
<path d="M470 900L495 510L450 410L540 330L630 410L585 510L610 900Z" fill="#050506" stroke="#34343a" stroke-width="3"/>
<text x="70" y="90" fill="#ff304f" font-family="monospace" font-size="20" font-weight="700" letter-spacing="4">CAMPAIGN D / SOCIAL / COMMUNITY</text>
<text x="70" y="1010" fill="#f0eadf" font-family="Impact, Arial Narrow, sans-serif" font-size="116" font-weight="900" letter-spacing="-2">WE COMPLETE</text>
<text x="70" y="1120" fill="#ff304f" font-family="Impact, Arial Narrow, sans-serif" font-size="108" font-weight="900" letter-spacing="-2">THE RITUAL</text>
<text x="70" y="1195" fill="#b8bec5" font-family="Arial, sans-serif" font-size="24" letter-spacing="4">THE CROWD CARRIES IT FORWARD.</text>
<line x1="70" y1="1240" x2="1010" y2="1240" stroke="#b8bec5" stroke-opacity=".5"/>
<text x="70" y="1295" fill="#f0eadf" font-family="Arial, sans-serif" font-size="28" font-weight="900" letter-spacing="5">JUST ONE KISS</text><text x="1010" y="1295" text-anchor="end" fill="#96969e" font-family="Arial, sans-serif" font-size="16">INDEPENDENT THEATRICAL ROCK TRIBUTE</text>
</svg>