<svg xmlns="http://www.w3.org/2000/svg" width="768" height="3022" viewBox="0 0 768 3022">
<defs><radialGradient id="fire" cx="70%" cy="45%"><stop offset="0" stop-color="#7b210d"/><stop offset=".55" stop-color="#210808"/><stop offset="1" stop-color="#050505"/></radialGradient><filter id="glow"><feGaussianBlur stdDeviation="4" result="b"/><feMerge><feMergeNode in="b"/><feMergeNode in="SourceGraphic"/></feMerge></filter><style><![CDATA[text{font-family:Arial,Helvetica,sans-serif}.num{font-weight:900;font-size:15px}.label{font-weight:800;font-size:12px;fill:#fff}.small{font-size:10px;fill:#ffd94a;font-weight:700}.section{fill:#ffd129;font-weight:900;font-size:14px;letter-spacing:1px}.call{fill:#080808;stroke-width:1.5;opacity:.96}.hint{fill:none;stroke:#f26b22;stroke-width:2;stroke-dasharray:7 5;opacity:.9}.wire{stroke:#ffd129;stroke-width:2;fill:none;opacity:.9}]]></style></defs>
<rect width="768" height="3022" fill="#030303"/><rect x="0" y="0" width="768" height="58" rx="12" fill="#050505" stroke="#713020" stroke-width="2"/><text class="section" x="18" y="28">HEADER</text><rect x="95" y="60" width="575" height="550" rx="12" fill="url(#fire)" stroke="#713020" stroke-width="2"/><text class="section" x="113" y="88">HERO</text><text x="112" y="155" fill="#fff" font-size="58" font-weight="900">YOU WANTED</text><text x="112" y="220" fill="#fff" font-size="58" font-weight="900">THE BEST?</text><text x="112" y="285" fill="#fff" font-size="58" font-weight="900">YOU GOT</text><text x="112" y="350" fill="#fff" font-size="58" font-weight="900">THE BEST!</text><path d="M455 120 L650 80 L585 255 L690 405" class="hint"/><path d="M425 145 C520 210 610 270 655 390" stroke="#f26b22" stroke-width="4" fill="none" opacity=".45"/><rect x="95" y="650" width="575" height="368" rx="12" fill="url(#fire)" stroke="#713020" stroke-width="2"/><text class="section" x="113" y="678">EVENT DETAILS</text><text x="115" y="735" fill="#fff" font-size="36" font-weight="900">JULY 25 AT CYCLE</text><text x="115" y="780" fill="#fff" font-size="36" font-weight="900">MOORE LEGACY.</text><rect x="95" y="1050" width="575" height="388" rx="12" fill="url(#fire)" stroke="#713020" stroke-width="2"/><text class="section" x="113" y="1078">ABOUT / PROOF</text><text x="115" y="1130" fill="#fff" font-size="34" font-weight="900">A STAGE TAKEOVER, NOT A</text><text x="115" y="1172" fill="#fff" font-size="34" font-weight="900">POLITE COVER NIGHT.</text><rect x="95" y="1480" width="575" height="315" rx="12" fill="url(#fire)" stroke="#713020" stroke-width="2"/><text class="section" x="113" y="1508">UPDATES</text><text x="115" y="1570" fill="#fff" font-size="42" font-weight="900">GET THE</text><text x="115" y="1622" fill="#fff" font-size="42" font-weight="900">JULY 25 DROP.</text><rect x="410" y="1530" width="220" height="210" rx="10" fill="#090909" stroke="#777"/><rect x="95" y="1845" width="575" height="380" rx="12" fill="url(#fire)" stroke="#713020" stroke-width="2"/><text class="section" x="113" y="1873">FINAL CTA</text><text x="220" y="1935" fill="#fff" font-size="36" font-weight="900" text-anchor="middle">JULY 25, 2026</text><text x="384" y="2005" fill="#fff" font-size="40" font-weight="900" text-anchor="middle">FREE SHOW</text><rect x="95" y="2275" width="575" height="400" rx="12" fill="url(#fire)" stroke="#713020" stroke-width="2"/><text class="section" x="113" y="2303">FAN VAULT</text><rect x="120" y="2370" width="145" height="78" rx="7" fill="#111" stroke="#aa4b35"/><rect x="120" y="2465" width="145" height="78" rx="7" fill="#111" stroke="#aa4b35"/><rect x="290" y="2370" width="145" height="78" rx="7" fill="#111" stroke="#aa4b35"/><rect x="290" y="2465" width="145" height="78" rx="7" fill="#111" stroke="#aa4b35"/><rect x="460" y="2370" width="145" height="78" rx="7" fill="#111" stroke="#aa4b35"/><rect x="460" y="2465" width="145" height="78" rx="7" fill="#111" stroke="#aa4b35"/><rect x="95" y="2735" width="575" height="250" rx="12" fill="url(#fire)" stroke="#b08a18" stroke-width="2"/><text class="section" x="113" y="2763">EVENT INFO</text><rect x="120" y="2830" width="145" height="78" rx="7" fill="#111" stroke="#aa4b35"/><rect x="290" y="2830" width="145" height="78" rx="7" fill="#111" stroke="#aa4b35"/><rect x="460" y="2830" width="145" height="78" rx="7" fill="#111" stroke="#aa4b35"/><rect x="0" y="2985" width="768" height="37" rx="12" fill="#050505" stroke="#713020" stroke-width="2"/><text class="section" x="18" y="3013">FOOTER</text>
<rect x="12" y="8" width="744" height="36" rx="8" fill="#050505" stroke="#ffd129"/><text x="24" y="31" fill="#fff" font-size="18" font-weight="900">Actual website screenshot markup with all bolt-on points</text>
<circle cx="72" cy="44" r="19" fill="#ffd129" stroke="#050505" stroke-width="4" filter="url(#glow)"/><text class="num" x="72" y="49" text-anchor="middle" fill="#050505">01</text><circle cx="72" cy="44" r="31" fill="none" stroke="#ffd129" stroke-width="3" opacity=".75"/><path class="wire" d="M72 44 L110 32"/><rect class="call" x="110" y="20" width="205" height="42" rx="7" stroke="#ffd129"/><text class="label" x="118" y="36">01 Header logo gremlin</text><text class="small" x="118" y="52">Imp on brand</text>
<circle cx="560" cy="145" r="19" fill="#ff6a21" stroke="#050505" stroke-width="4" filter="url(#glow)"/><text class="num" x="560" y="150" text-anchor="middle" fill="#050505">02</text><circle cx="560" cy="145" r="31" fill="none" stroke="#ff6a21" stroke-width="3" opacity=".75"/><path class="wire" d="M560 145 L315 133"/><rect class="call" x="315" y="121" width="205" height="42" rx="7" stroke="#ff6a21"/><text class="label" x="323" y="137">02 Bat-wing portal</text><text class="small" x="323" y="153">Winged silhouette in chrome portal</text>
<circle cx="110" cy="116" r="19" fill="#ffffff" stroke="#050505" stroke-width="4" filter="url(#glow)"/><text class="num" x="110" y="121" text-anchor="middle" fill="#050505">03</text><circle cx="110" cy="116" r="31" fill="none" stroke="#ffffff" stroke-width="3" opacity=".75"/><path class="wire" d="M110 116 L148 104"/><rect class="call" x="148" y="92" width="205" height="42" rx="7" stroke="#ffffff"/><text class="label" x="156" y="108">03 Headline sparks</text><text class="small" x="156" y="124">Weld sparks on headline</text>
<circle cx="230" cy="438" r="19" fill="#ffd129" stroke="#050505" stroke-width="4" filter="url(#glow)"/><text class="num" x="230" y="443" text-anchor="middle" fill="#050505">04</text><circle cx="230" cy="438" r="31" fill="none" stroke="#ffd129" stroke-width="3" opacity=".75"/><path class="wire" d="M230 438 L268 426"/><rect class="call" x="268" y="414" width="205" height="42" rx="7" stroke="#ffd129"/><text class="label" x="276" y="430">04 Countdown fuse</text><text class="small" x="276" y="446">Fuse beside live countdown</text>
<circle cx="625" cy="445" r="19" fill="#ff6a21" stroke="#050505" stroke-width="4" filter="url(#glow)"/><text class="num" x="625" y="450" text-anchor="middle" fill="#050505">05</text><circle cx="625" cy="445" r="31" fill="none" stroke="#ff6a21" stroke-width="3" opacity=".75"/><path class="wire" d="M625 445 L380 433"/><rect class="call" x="380" y="421" width="205" height="42" rx="7" stroke="#ff6a21"/><text class="label" x="388" y="437">05 Poster peek</text><text class="small" x="388" y="453">Peek creature at poster card</text>
<circle cx="585" cy="705" r="19" fill="#ffffff" stroke="#050505" stroke-width="4" filter="url(#glow)"/><text class="num" x="585" y="710" text-anchor="middle" fill="#050505">06</text><circle cx="585" cy="705" r="31" fill="none" stroke="#ffffff" stroke-width="3" opacity=".75"/><path class="wire" d="M585 705 L340 693"/><rect class="call" x="340" y="681" width="205" height="42" rx="7" stroke="#ffffff"/><text class="label" x="348" y="697">06 Falling road case</text><text class="small" x="348" y="713">Road case on ticket card</text>
<circle cx="520" cy="980" r="19" fill="#ffd129" stroke="#050505" stroke-width="4" filter="url(#glow)"/><text class="num" x="520" y="985" text-anchor="middle" fill="#050505">07</text><circle cx="520" cy="980" r="31" fill="none" stroke="#ffd129" stroke-width="3" opacity=".75"/><path class="wire" d="M520 980 L275 968"/><rect class="call" x="275" y="956" width="205" height="42" rx="7" stroke="#ffd129"/><text class="label" x="283" y="972">07 Camper on pills</text><text class="small" x="283" y="988">Tiny van over parking/camping pills</text>
<circle cx="610" cy="1045" r="19" fill="#ff6a21" stroke="#050505" stroke-width="4" filter="url(#glow)"/><text class="num" x="610" y="1050" text-anchor="middle" fill="#050505">08</text><circle cx="610" cy="1045" r="31" fill="none" stroke="#ff6a21" stroke-width="3" opacity=".75"/><path class="wire" d="M610 1045 L365 1033"/><rect class="call" x="365" y="1021" width="205" height="42" rx="7" stroke="#ff6a21"/><text class="label" x="373" y="1037">08 Fog goblin</text><text class="small" x="373" y="1053">Smoke safety mascot</text>
<circle cx="96" cy="1160" r="19" fill="#ffffff" stroke="#050505" stroke-width="4" filter="url(#glow)"/><text class="num" x="96" y="1165" text-anchor="middle" fill="#050505">09</text><circle cx="96" cy="1160" r="31" fill="none" stroke="#ffffff" stroke-width="3" opacity=".75"/><path class="wire" d="M96 1160 L134 1148"/><rect class="call" x="134" y="1136" width="205" height="42" rx="7" stroke="#ffffff"/><text class="label" x="142" y="1152">09 Chrome hand</text><text class="small" x="142" y="1168">Hand gripping about panel</text>
<circle cx="386" cy="1390" r="19" fill="#ffd129" stroke="#050505" stroke-width="4" filter="url(#glow)"/><text class="num" x="386" y="1395" text-anchor="middle" fill="#050505">10</text><circle cx="386" cy="1390" r="31" fill="none" stroke="#ffd129" stroke-width="3" opacity=".75"/><path class="wire" d="M386 1390 L424 1378"/><rect class="call" x="424" y="1366" width="205" height="42" rx="7" stroke="#ffd129"/><text class="label" x="432" y="1382">10 Proof mascot</text><text class="small" x="432" y="1398">Mascot between proof cards</text>
<circle cx="530" cy="1518" r="19" fill="#ff6a21" stroke="#050505" stroke-width="4" filter="url(#glow)"/><text class="num" x="530" y="1523" text-anchor="middle" fill="#050505">11</text><circle cx="530" cy="1518" r="31" fill="none" stroke="#ff6a21" stroke-width="3" opacity=".75"/><path class="wire" d="M530 1518 L285 1506"/><rect class="call" x="285" y="1494" width="205" height="42" rx="7" stroke="#ff6a21"/><text class="label" x="293" y="1510">11 Guitar pick</text><text class="small" x="293" y="1526">Pick landing by form</text>
<circle cx="645" cy="1595" r="19" fill="#ffffff" stroke="#050505" stroke-width="4" filter="url(#glow)"/><text class="num" x="645" y="1600" text-anchor="middle" fill="#050505">12</text><circle cx="645" cy="1595" r="31" fill="none" stroke="#ffffff" stroke-width="3" opacity=".75"/><path class="wire" d="M645 1595 L400 1583"/><rect class="call" x="400" y="1571" width="205" height="42" rx="7" stroke="#ffffff"/><text class="label" x="408" y="1587">12 Input gremlin</text><text class="small" x="408" y="1603">Gremlin at email input</text>
<circle cx="520" cy="1710" r="19" fill="#ffd129" stroke="#050505" stroke-width="4" filter="url(#glow)"/><text class="num" x="520" y="1715" text-anchor="middle" fill="#050505">13</text><circle cx="520" cy="1710" r="31" fill="none" stroke="#ffd129" stroke-width="3" opacity=".75"/><path class="wire" d="M520 1710 L275 1698"/><rect class="call" x="275" y="1686" width="205" height="42" rx="7" stroke="#ffd129"/><text class="label" x="283" y="1702">13 Drawer monster</text><text class="small" x="283" y="1718">Creature in update drawer</text>
<circle cx="384" cy="1880" r="19" fill="#ff6a21" stroke="#050505" stroke-width="4" filter="url(#glow)"/><text class="num" x="384" y="1885" text-anchor="middle" fill="#050505">14</text><circle cx="384" cy="1880" r="31" fill="none" stroke="#ff6a21" stroke-width="3" opacity=".75"/><path class="wire" d="M384 1880 L422 1868"/><rect class="call" x="422" y="1856" width="205" height="42" rx="7" stroke="#ff6a21"/><text class="label" x="430" y="1872">14 Stage-light bats</text><text class="small" x="430" y="1888">Bats in stage lights</text>
<circle cx="545" cy="2035" r="19" fill="#ffffff" stroke="#050505" stroke-width="4" filter="url(#glow)"/><text class="num" x="545" y="2040" text-anchor="middle" fill="#050505">15</text><circle cx="545" cy="2035" r="31" fill="none" stroke="#ffffff" stroke-width="3" opacity=".75"/><path class="wire" d="M545 2035 L300 2023"/><rect class="call" x="300" y="2011" width="205" height="42" rx="7" stroke="#ffffff"/><text class="label" x="308" y="2027">15 Pyro dragon</text><text class="small" x="308" y="2043">Dragon behind headline</text>
<circle cx="560" cy="2450" r="19" fill="#ffd129" stroke="#050505" stroke-width="4" filter="url(#glow)"/><text class="num" x="560" y="2455" text-anchor="middle" fill="#050505">16</text><circle cx="560" cy="2450" r="31" fill="none" stroke="#ffd129" stroke-width="3" opacity=".75"/><path class="wire" d="M560 2450 L315 2438"/><rect class="call" x="315" y="2426" width="205" height="42" rx="7" stroke="#ffd129"/><text class="label" x="323" y="2442">16 Road-case mimic</text><text class="small" x="323" y="2458">Mimic in vault cards</text>
<circle cx="150" cy="2420" r="19" fill="#ff6a21" stroke="#050505" stroke-width="4" filter="url(#glow)"/><text class="num" x="150" y="2425" text-anchor="middle" fill="#050505">17</text><circle cx="150" cy="2420" r="31" fill="none" stroke="#ff6a21" stroke-width="3" opacity=".75"/><path class="wire" d="M150 2420 L188 2408"/><rect class="call" x="188" y="2396" width="205" height="42" rx="7" stroke="#ff6a21"/><text class="label" x="196" y="2412">17 Fan Polaroids</text><text class="small" x="196" y="2428">Photos spilling out</text>
<circle cx="690" cy="2870" r="19" fill="#ffffff" stroke="#050505" stroke-width="4" filter="url(#glow)"/><text class="num" x="690" y="2875" text-anchor="middle" fill="#050505">18</text><circle cx="690" cy="2870" r="31" fill="none" stroke="#ffffff" stroke-width="3" opacity=".75"/><path class="wire" d="M690 2870 L445 2858"/><rect class="call" x="445" y="2846" width="205" height="42" rx="7" stroke="#ffffff"/><text class="label" x="453" y="2862">18 Earplug mascot</text><text class="small" x="453" y="2878">Safety mascot</text>
<circle cx="384" cy="2915" r="19" fill="#ffd129" stroke="#050505" stroke-width="4" filter="url(#glow)"/><text class="num" x="384" y="2920" text-anchor="middle" fill="#050505">19</text><circle cx="384" cy="2915" r="31" fill="none" stroke="#ffd129" stroke-width="3" opacity=".75"/><path class="wire" d="M384 2915 L422 2903"/><rect class="call" x="422" y="2891" width="205" height="42" rx="7" stroke="#ffd129"/><text class="label" x="430" y="2907">19 Camping tent</text><text class="small" x="430" y="2923">Tent on camping card</text>
<circle cx="620" cy="3005" r="19" fill="#ff6a21" stroke="#050505" stroke-width="4" filter="url(#glow)"/><text class="num" x="620" y="3010" text-anchor="middle" fill="#050505">20</text><circle cx="620" cy="3005" r="31" fill="none" stroke="#ff6a21" stroke-width="3" opacity=".75"/><path class="wire" d="M620 3005 L375 2993"/><rect class="call" x="375" y="2981" width="205" height="42" rx="7" stroke="#ff6a21"/><text class="label" x="383" y="2997">20 Footer roadie rat</text><text class="small" x="383" y="3013">Rat carrying cable</text>
</svg>